<svg width="1120" height="700" viewBox="0 0 1120 700" fill="none" xmlns="http://www.w3.org/2000/svg" role="img" aria-labelledby="title desc">
  <title id="title">Dashboard administrativo de ProfitnessGym</title>
  <desc id="desc">Mockup oscuro de dashboard con métricas, gráficos y tabla operacional.</desc>
  <rect width="1120" height="700" rx="34" fill="#070A0F"/>
  <rect x="1" y="1" width="1118" height="698" rx="33" stroke="#8BBCFF" stroke-opacity="0.18"/>
  <rect x="34" y="34" width="220" height="632" rx="24" fill="#0D121A"/>
  <rect x="286" y="34" width="800" height="632" rx="24" fill="#0B0F16"/>
  <circle cx="74" cy="78" r="18" fill="#8BBCFF"/>
  <rect x="104" y="66" width="104" height="14" rx="7" fill="#F8FAFC" fill-opacity="0.9"/>
  <rect x="104" y="88" width="72" height="10" rx="5" fill="#8A94A6"/>
  <g opacity="0.9">
    <rect x="62" y="142" width="150" height="12" rx="6" fill="#D7E7FF"/>
    <rect x="62" y="187" width="120" height="12" rx="6" fill="#7B8493"/>
    <rect x="62" y="232" width="136" height="12" rx="6" fill="#7B8493"/>
    <rect x="62" y="277" width="106" height="12" rx="6" fill="#7B8493"/>
    <rect x="62" y="322" width="128" height="12" rx="6" fill="#7B8493"/>
    <rect x="62" y="367" width="96" height="12" rx="6" fill="#7B8493"/>
  </g>
  <rect x="326" y="76" width="230" height="112" rx="20" fill="#111827"/>
  <rect x="584" y="76" width="204" height="112" rx="20" fill="#111827"/>
  <rect x="816" y="76" width="230" height="112" rx="20" fill="#111827"/>
  <rect x="354" y="106" width="92" height="12" rx="6" fill="#8A94A6"/>
  <rect x="354" y="136" width="132" height="24" rx="12" fill="#F8FAFC"/>
  <rect x="612" y="106" width="82" height="12" rx="6" fill="#8A94A6"/>
  <rect x="612" y="136" width="98" height="24" rx="12" fill="#8BBCFF"/>
  <rect x="844" y="106" width="106" height="12" rx="6" fill="#8A94A6"/>
  <rect x="844" y="136" width="148" height="24" rx="12" fill="#F8FAFC"/>
  <rect x="326" y="222" width="450" height="214" rx="22" fill="#111827"/>
  <path d="M365 374C407 312 449 338 491 292C533 246 575 289 617 252C659 215 701 235 737 196" stroke="#8BBCFF" stroke-width="6" stroke-linecap="round"/>
  <path d="M365 393C407 352 449 366 491 332C533 298 575 326 617 299C659 272 701 285 737 262" stroke="#56657A" stroke-width="4" stroke-linecap="round"/>
  <rect x="816" y="222" width="230" height="214" rx="22" fill="#111827"/>
  <circle cx="931" cy="329" r="66" stroke="#273244" stroke-width="18"/>
  <path d="M931 263A66 66 0 0 1 993 351" stroke="#8BBCFF" stroke-width="18" stroke-linecap="round"/>
  <rect x="326" y="470" width="720" height="152" rx="22" fill="#111827"/>
  <rect x="360" y="506" width="650" height="10" rx="5" fill="#2B3444"/>
  <rect x="360" y="544" width="650" height="10" rx="5" fill="#2B3444"/>
  <rect x="360" y="582" width="650" height="10" rx="5" fill="#2B3444"/>
  <rect x="360" y="506" width="160" height="10" rx="5" fill="#D7E7FF"/>
  <rect x="360" y="544" width="210" height="10" rx="5" fill="#8BBCFF"/>
  <rect x="360" y="582" width="120" height="10" rx="5" fill="#D7E7FF"/>
</svg>
